<?xml version="1.0" encoding="UTF-8"?>
  <!-- Main SVG container with viewport dimensions -->
  <svg id="_Слой_1" data-name="Слой 1" xmlns="http://www.w3.org/2000/svg" viewBox="0 0 300 300">
  <!-- Define styles for different elements -->
  <defs>
    <style>
      /* Light blue color */
      .cls-1 {
        fill: #12deff;
      }

      /* Medium blue color */
      .cls-2 {
        fill: #0d8cff;
      }

      /* Dark blue color */
      .cls-3 {
        fill: #1054ff;
      }

      /* Dark gray color for text */
      .cls-4 {
        fill: #2d373f;
      }
    </style>
  </defs>
  <!-- Logo mark group -->
  <g>
    <!-- Top right segment of logo mark -->
    <path class="cls-2" d="M485.17,450.77c0,4.93-2,9.4-5.23,12.64-.97.97-2.05,1.83-3.23,2.56-.58-3.86-2.4-7.32-5.04-9.96-3.23-3.23-7.7-5.23-12.64-5.23h-10.68l-9.48-17.87h28.42c6.57,0,12.31,3.54,15.41,8.82l.74,1.39c1.1,2.32,1.72,4.92,1.72,7.66Z"/>
    <!-- Bottom right segment of logo mark -->
    <path class="cls-3" d="M476.9,468.64c0,7.22-4.28,13.44-10.44,16.26-2.26,1.04-4.78,1.61-7.43,1.61h-30.88l-14.16-26.69c3.1,5.28,8.84,8.82,15.41,8.82h28.44l-9.48-17.87h10.68c4.93,0,9.4,2,12.64,5.23,2.64,2.64,4.46,6.1,5.04,9.96.13.87.2,1.76.2,2.67Z"/>
    <!-- Top left segment of logo mark -->
    <path class="cls-1" d="M482.71,441.72c-3.1-5.28-8.84-8.82-15.41-8.82h-28.44l9.48,17.87h-10.68c-4.93,0-9.4-2-12.64-5.23-2.64-2.64-4.46-6.1-5.03-9.96-.13-.87-.2-1.76-.2-2.67,0-7.22,4.28-13.44,10.44-16.26,2.26-1.04,4.78-1.61,7.43-1.61h30.88l14.16,26.69Z"/>
    <!-- Bottom left segment of logo mark -->
    <path class="cls-2" d="M457.82,468.64h-28.42c-6.57,0-12.31-3.54-15.41-8.82l-.74-1.39c-1.1-2.32-1.72-4.92-1.72-7.66,0-4.93,2-9.4,5.23-12.64.97-.97,2.06-1.83,3.23-2.56.58,3.87,2.4,7.33,5.03,9.96,3.23,3.23,7.7,5.23,12.64,5.23h10.68l9.48,17.87Z"/>
  </g>
  <!-- Text groups -->
  <g>
    <!-- Main text group -->
    <g>
      <!-- Letters spelling out company name -->
      <path class="cls-4" d="M515.23,440.5c0-2.56,2.66-4.34,6.61-4.34,4.24,0,7.1,2.07,7.1,5.04h12.82c0-8.98-8.1-15.49-19.82-15.49-11.05,0-19.53,5.83-19.53,15.98,0,18.05,27.31,13.31,27.31,21.5,0,2.66-2.96,4.63-7.2,4.63-4.64,0-7.98-2.27-7.98-5.71h-12.92c0,9.47,8.38,16.26,20.9,16.26s20.12-6.61,20.12-16.46c0-18.05-27.41-13.41-27.41-21.4Z"/>
      <path class="cls-4" d="M600.73,452.24c0-15.19-11.64-26.53-27.03-26.53s-27.01,11.34-27.01,26.33,11.64,26.33,27.21,26.33c12.24,0,22.19-6.8,26.04-16.76h-13.91c-2.27,3.26-6.61,5.63-11.84,5.63-6.9,0-12.12-4.24-13.81-10.75h39.93c.3-1.28.4-2.86.4-4.24ZM560.49,447.11c1.77-6.21,6.71-10.25,13.21-10.25s11.74,4.14,13.32,10.25h-26.53Z"/>
      <path class="cls-4" d="M635.15,425.71c-6.51,0-12.02,2.37-15.98,6.81v-5.63h-12.82v50.29h12.82v-27.6c0-6.91,4.74-11.45,11.84-11.45,6.61,0,10.95,4.44,10.95,11.25v27.8h12.81v-31.94c0-11.84-7.78-19.53-19.62-19.53Z"/>
      <path class="cls-4" d="M680.24,459.14v-18.95l-12.81,5.1v16.02c0,10.37,6.01,15.88,17.55,15.88h6.9v-11.74h-5.03c-4.14,0-6.61-2.36-6.61-6.31ZM680.24,426.9v-13.41h-12.12v9.37c0,2.66-1.48,4.04-4.14,4.04h-4.54v11.74h32.44v-11.74h-11.64Z"/>
      <path class="cls-4" d="M726.87,426.11c-6.61,0-12.04,3.16-15.98,8.38v-7.6h-12.82v50.29h12.82v-23.96c0-8.48,5.73-13.91,15.98-13.91h1.87v-13.21h-1.87Z"/>
    </g>
    <!-- Secondary text group -->
    <g>
      <!-- Additional text elements -->
      <path class="cls-4" d="M825.95,426.9v24.73h3.84v-24.73h-3.84Z"/>
      <path class="cls-4" d="M847.22,434.11v2.51c-1.44-1.83-3.57-2.93-6.15-2.93-4.94,0-8.62,3.95-8.62,9.18s3.68,9.17,8.62,9.17c2.58,0,4.71-1.1,6.15-2.91v2.5h3.84v-17.52h-3.84ZM841.82,448.33c-3.13,0-5.43-2.37-5.43-5.45s2.3-5.47,5.43-5.47,5.4,2.37,5.4,5.47-2.3,5.45-5.4,5.45Z"/>
      <path class="cls-4" d="M864.28,433.69c-2.57,0-4.7,1.1-6.18,2.93v-9.72h-3.84v24.73h3.84v-2.5c1.48,1.81,3.61,2.91,6.18,2.91,4.91,0,8.62-3.94,8.62-9.17s-3.71-9.18-8.62-9.18ZM863.53,448.33c-3.08,0-5.43-2.37-5.43-5.45s2.34-5.47,5.43-5.47,5.4,2.37,5.4,5.47-2.3,5.45-5.4,5.45Z"/>
      <path class="cls-4" d="M878.82,438.79c0-1.07,1.07-1.8,2.68-1.8s2.78.83,2.78,2.03h3.91c0-3.16-2.68-5.33-6.67-5.33s-6.6,2.1-6.6,5.5c0,6.22,9.62,4.47,9.62,7.64,0,1.1-1.14,1.88-2.86,1.88-1.86,0-3.13-.9-3.13-2.24h-3.91c0,3.3,2.78,5.57,7.01,5.57s6.8-2.23,6.8-5.63c0-6.25-9.65-4.57-9.65-7.62Z"/>
    </g>
    <!-- Final text group -->
    <g>
      <!-- Vertical bar element -->
      <rect class="cls-4" x="736.55" y="415.22" width="12.14" height="63.11"/>
      <!-- Search icon/magnifying glass -->
      <path class="cls-4" d="M811.6,467.1c4.48-5.76,6.85-12.77,6.85-20.32,0-18.19-14.25-32.44-32.44-32.44s-32.44,13.95-32.44,32.44,13.95,32.44,32.44,32.44c6.41,0,12.44-1.71,17.51-4.95l3.98,4.06h15.24l-11.14-11.24ZM806.31,446.78c0,4.26-1.12,8.27-3.25,11.68l-9.29-9.37h-15.23l16.31,16.5c-2.71,1.29-5.68,1.94-8.84,1.94-11.57,0-20.3-8.92-20.3-20.75s8.73-20.75,20.3-20.75,20.3,8.92,20.3,20.75Z"/>
    </g>
  </g>
</svg>